<!DOCTYPE svg PUBLIC "-//W3C//DTD SVG 1.1//EN" "http://www.w3.org/Graphics/SVG/1.1/DTD/svg11.dtd">
<!-- Uploaded to: SVG Repo, www.svgrepo.com, Transformed by: SVG Repo Mixer Tools -->
<svg fill="#1e40af" height="125px" width="125px" version="1.1" id="Layer_1" xmlns="http://www.w3.org/2000/svg" xmlns:xlink="http://www.w3.org/1999/xlink" viewBox="0 0 390 390" xml:space="preserve" stroke="#1e40af" stroke-width="0.0039">
<g id="SVGRepo_bgCarrier" stroke-width="0"/>
<g id="SVGRepo_tracerCarrier" stroke-linecap="round" stroke-linejoin="round"/>
<g id="SVGRepo_iconCarrier"> <g id="XMLID_2_"> <path id="XMLID_4_" d="M194.999,300H195c57.898,0,105-47.102,105-105S252.898,90,195,90S90,137.102,90,195 C90,252.895,137.102,299.998,194.999,300z M121.51,210h28.878c0.946,18.186,3.643,35.797,8.228,50.551 C139.803,250.066,125.939,231.732,121.51,210z M209.568,180h-29.137c1.908-32.549,9.728-52.49,14.568-58.639 C199.841,127.51,207.66,147.451,209.568,180z M209.568,210c-1.908,32.549-9.728,52.49-14.568,58.639 c-4.841-6.148-12.66-26.09-14.568-58.639H209.568z M231.385,260.553c4.584-14.754,7.281-32.367,8.228-50.553h28.878 C264.061,231.734,250.197,250.068,231.385,260.553z M268.49,180h-28.878c-0.946-18.186-3.644-35.799-8.228-50.553 C250.197,139.932,264.061,158.266,268.49,180z M158.615,129.447c-4.584,14.754-7.281,32.367-8.228,50.553H121.51 C125.938,158.266,139.803,139.932,158.615,129.447z"/> <path id="XMLID_12_" d="M355.606,4.394C352.793,1.58,348.978,0,344.999,0l-300,0.016c-8.284,0-14.999,6.716-14.999,15V375 c0,8.284,6.716,15,15,15h300c8.284,0,15-6.716,15-15V15C360,11.021,358.42,7.206,355.606,4.394z M330,360H60V30.015l270-0.014V360z "/> </g> </g>
</svg>