<svg id="visual" preserveAspectRatio="none" viewBox="0 0 900 450" width="900" height="450" xmlns="http://www.w3.org/2000/svg" xmlns:xlink="http://www.w3.org/1999/xlink" version="1.1"><rect x="0" y="0" width="900" height="450" fill="#f59e0b"></rect><defs><linearGradient id="grad1_0" x1="50%" y1="0%" x2="100%" y2="100%"><stop offset="10%" stop-color="#f59e0b" stop-opacity="1"></stop><stop offset="90%" stop-color="#f59e0b" stop-opacity="1"></stop></linearGradient></defs><defs><linearGradient id="grad2_0" x1="0%" y1="0%" x2="50%" y2="100%"><stop offset="10%" stop-color="#f59e0b" stop-opacity="1"></stop><stop offset="90%" stop-color="#f59e0b" stop-opacity="1"></stop></linearGradient></defs><g transform="translate(900, 0)"><path d="M0 111C-8.5 108.6 -17.1 106.1 -29 108.2C-40.9 110.2 -56.2 116.8 -65 112.6C-73.8 108.4 -76.2 93.5 -84.1 84.1C-92.1 74.8 -105.5 71 -107.4 62C-109.3 53 -99.7 38.6 -102.4 27.4C-105.1 16.2 -120 8.1 -135 0L0 0Z" fill="#71717a"></path></g><g transform="translate(0, 450)"><path d="M0 -131C11.2 -129.2 22.3 -127.4 33.6 -125.6C45 -123.8 56.5 -122 67.5 -116.9C78.5 -111.8 89 -103.3 90.5 -90.5C92 -77.7 84.6 -60.7 87.5 -50.5C90.3 -40.3 103.4 -37 111.1 -29.8C118.7 -22.5 120.9 -11.2 123 0L0 0Z" fill="#71717a"></path></g></svg>